<svg width="68" height="68" viewBox="0 0 68 68" fill="none" xmlns="http://www.w3.org/2000/svg">
<g filter="url(#filter0_d_74_33)">
<circle cx="33.5959" cy="29.5959" r="29.5959" fill="white"/>
<circle cx="33.5959" cy="29.5959" r="29.0959" stroke="black"/>
</g>
<path d="M18.4666 18.3459C10.2124 30.9681 18.6162 40.1343 23.8498 43.1396V49H42.6909V43.1396C43.8872 43.1396 47.1769 41.6069 50.7657 35.4761C54.3544 29.3453 49.2703 20.5999 46.2797 16.9935C40.4479 12.185 26.7208 5.72359 18.4666 18.3459Z" fill="#D9D9D9" stroke="black"/>
<circle cx="26.5" cy="31.5" r="2.5" fill="white"/>
<ellipse cx="40" cy="31.5" rx="3" ry="2.5" fill="white"/>
<g filter="url(#filter1_d_74_33)">
<path d="M26.75 25.7037C25.7116 25.7037 24.6966 26.0154 23.8333 26.5994C22.9699 27.1834 22.297 28.0135 21.8996 28.9846C21.5023 29.9558 21.3983 31.0244 21.6009 32.0554C21.8034 33.0864 22.3035 34.0334 23.0377 34.7767C23.7719 35.52 24.7074 36.0261 25.7258 36.2312C26.7442 36.4363 27.7998 36.331 28.7591 35.9288C29.7184 35.5265 30.5383 34.8453 31.1152 33.9713C31.6921 33.0973 32 32.0697 32 31.0185C32 29.6089 31.4469 28.2571 30.4623 27.2604C29.4777 26.2637 28.1424 25.7037 26.75 25.7037ZM26.75 33.2963C26.305 33.2963 25.87 33.1627 25.5 32.9124C25.13 32.6621 24.8416 32.3064 24.6713 31.8902C24.501 31.474 24.4564 31.016 24.5432 30.5741C24.63 30.1323 24.8443 29.7264 25.159 29.4079C25.4737 29.0893 25.8746 28.8724 26.311 28.7845C26.7475 28.6966 27.1999 28.7417 27.611 28.9141C28.0222 29.0865 28.3736 29.3785 28.6208 29.7531C28.868 30.1276 29 30.568 29 31.0185C29 31.6226 28.7629 32.202 28.341 32.6292C27.919 33.0563 27.3467 33.2963 26.75 33.2963ZM40.25 25.7037C39.2116 25.7037 38.1966 26.0154 37.3333 26.5994C36.4699 27.1834 35.797 28.0135 35.3996 28.9846C35.0023 29.9558 34.8983 31.0244 35.1009 32.0554C35.3034 33.0864 35.8035 34.0334 36.5377 34.7767C37.2719 35.52 38.2074 36.0261 39.2258 36.2312C40.2442 36.4363 41.2998 36.331 42.2591 35.9288C43.2184 35.5265 44.0383 34.8453 44.6152 33.9713C45.1921 33.0973 45.5 32.0697 45.5 31.0185C45.5 29.6089 44.9469 28.2571 43.9623 27.2604C42.9777 26.2637 41.6424 25.7037 40.25 25.7037ZM40.25 33.2963C39.805 33.2963 39.37 33.1627 39 32.9124C38.63 32.6621 38.3416 32.3064 38.1713 31.8902C38.001 31.474 37.9564 31.016 38.0432 30.5741C38.13 30.1323 38.3443 29.7264 38.659 29.4079C38.9737 29.0893 39.3746 28.8724 39.811 28.7845C40.2475 28.6966 40.6999 28.7417 41.111 28.9141C41.5222 29.0865 41.8736 29.3785 42.1208 29.7531C42.368 30.1276 42.5 30.568 42.5 31.0185C42.5 31.6226 42.2629 32.202 41.841 32.6292C41.419 33.0563 40.8467 33.2963 40.25 33.2963ZM33.5 9C22.7469 9 14 17.5151 14 27.9815C14 34.4542 17.4256 40.5093 23 43.9791V46.963C23 47.7684 23.3161 48.5409 23.8787 49.1105C24.4413 49.68 25.2044 50 26 50H41C41.7956 50 42.5587 49.68 43.1213 49.1105C43.6839 48.5409 44 47.7684 44 46.963V43.9791C49.5744 40.5093 53 34.4542 53 27.9815C53 17.5151 44.2531 9 33.5 9ZM41.7725 41.7791C41.5383 41.9106 41.3431 42.1032 41.2073 42.3368C41.0714 42.5705 40.9999 42.8367 41 43.1078V46.963H38V42.4074C38 42.0047 37.842 41.6184 37.5607 41.3337C37.2794 41.0489 36.8978 40.8889 36.5 40.8889C36.1022 40.8889 35.7206 41.0489 35.4393 41.3337C35.158 41.6184 35 42.0047 35 42.4074V46.963H32V42.4074C32 42.0047 31.842 41.6184 31.5607 41.3337C31.2794 41.0489 30.8978 40.8889 30.5 40.8889C30.1022 40.8889 29.7206 41.0489 29.4393 41.3337C29.158 41.6184 29 42.0047 29 42.4074V46.963H26V43.1078C26.0001 42.8367 25.9286 42.5705 25.7927 42.3368C25.6569 42.1032 25.4617 41.9106 25.2275 41.7791C20.1519 38.9319 17 33.6456 17 27.9815C17 19.1893 24.4025 12.037 33.5 12.037C42.5975 12.037 50 19.1893 50 27.9815C50 33.6437 46.8481 38.9319 41.7725 41.7791Z" fill="#545454"/>
</g>
<defs>
<filter id="filter0_d_74_33" x="0" y="0" width="67.1917" height="67.1917" filterUnits="userSpaceOnUse" color-interpolation-filters="sRGB">
<feFlood flood-opacity="0" result="BackgroundImageFix"/>
<feColorMatrix in="SourceAlpha" type="matrix" values="0 0 0 0 0 0 0 0 0 0 0 0 0 0 0 0 0 0 127 0" result="hardAlpha"/>
<feOffset dy="4"/>
<feGaussianBlur stdDeviation="2"/>
<feComposite in2="hardAlpha" operator="out"/>
<feColorMatrix type="matrix" values="0 0 0 0 0 0 0 0 0 0 0 0 0 0 0 0 0 0 0.25 0"/>
<feBlend mode="normal" in2="BackgroundImageFix" result="effect1_dropShadow_74_33"/>
<feBlend mode="normal" in="SourceGraphic" in2="effect1_dropShadow_74_33" result="shape"/>
</filter>
<filter id="filter1_d_74_33" x="10" y="9" width="47" height="49" filterUnits="userSpaceOnUse" color-interpolation-filters="sRGB">
<feFlood flood-opacity="0" result="BackgroundImageFix"/>
<feColorMatrix in="SourceAlpha" type="matrix" values="0 0 0 0 0 0 0 0 0 0 0 0 0 0 0 0 0 0 127 0" result="hardAlpha"/>
<feOffset dy="4"/>
<feGaussianBlur stdDeviation="2"/>
<feComposite in2="hardAlpha" operator="out"/>
<feColorMatrix type="matrix" values="0 0 0 0 0 0 0 0 0 0 0 0 0 0 0 0 0 0 0.25 0"/>
<feBlend mode="normal" in2="BackgroundImageFix" result="effect1_dropShadow_74_33"/>
<feBlend mode="normal" in="SourceGraphic" in2="effect1_dropShadow_74_33" result="shape"/>
</filter>
</defs>
</svg>
